solid roomWindowFace
facet normal 0.000000 0.000000 -1.000000
outer loop
vertex 12.236316 0.000000 18.662621
vertex 14.736316 1.550000 18.662621
vertex 16.886316 0.000000 18.662621
endloop
endfacet
facet normal 0.000000 0.000000 -1.000000
outer loop
vertex 14.736316 1.550000 18.662621
vertex 12.236316 0.000000 18.662621
vertex 12.236316 3.657600 18.662621
endloop
endfacet
facet normal -0.000001 0.000000 -1.000000
outer loop
vertex 14.736316 1.550000 18.662621
vertex 12.236316 3.657600 18.662621
vertex 14.736316 3.050000 18.662621
endloop
endfacet
facet normal 0.000000 0.000000 -1.000000
outer loop
vertex 14.736316 3.050000 18.662621
vertex 12.236316 3.657600 18.662621
vertex 16.236315 3.050000 18.662621
endloop
endfacet
facet normal -0.000003 0.000000 -1.000000
outer loop
vertex 16.886316 0.000000 18.662621
vertex 16.236315 1.550000 18.662621
vertex 16.886316 3.657600 18.662621
endloop
endfacet
facet normal 0.000000 0.000000 -1.000000
outer loop
vertex 16.236315 1.550000 18.662621
vertex 16.886316 0.000000 18.662621
vertex 14.736316 1.550000 18.662621
endloop
endfacet
facet normal 0.000000 0.000000 -1.000000
outer loop
vertex 16.886316 3.657600 18.662621
vertex 16.236315 1.550000 18.662621
vertex 16.236315 3.050000 18.662621
endloop
endfacet
facet normal 0.000000 0.000000 -1.000000
outer loop
vertex 16.886316 3.657600 18.662621
vertex 16.236315 3.050000 18.662621
vertex 12.236316 3.657600 18.662621
endloop
endfacet
endsolid roomWindowFace
