solid roomWindowFace
facet normal 0.000000 -1.000000 0.000000
outer loop
vertex 5.073684 0.362621 0.000000
vertex 2.573684 0.362621 1.550000
vertex 0.423684 0.362621 0.000000
endloop
endfacet
facet normal 0.000000 -1.000000 0.000000
outer loop
vertex 2.573684 0.362621 1.550000
vertex 5.073684 0.362621 0.000000
vertex 5.073684 0.362621 3.657600
endloop
endfacet
facet normal 0.000000 -1.000000 0.000000
outer loop
vertex 2.573684 0.362621 1.550000
vertex 5.073684 0.362621 3.657600
vertex 2.573684 0.362621 3.050000
endloop
endfacet
facet normal 0.000000 -1.000000 0.000000
outer loop
vertex 2.573684 0.362621 3.050000
vertex 5.073684 0.362621 3.657600
vertex 1.073684 0.362621 3.050000
endloop
endfacet
facet normal 0.000000 -1.000000 0.000000
outer loop
vertex 0.423684 0.362621 0.000000
vertex 1.073684 0.362621 1.550000
vertex 0.423684 0.362621 3.657600
endloop
endfacet
facet normal 0.000000 -1.000000 0.000000
outer loop
vertex 1.073684 0.362621 1.550000
vertex 0.423684 0.362621 0.000000
vertex 2.573684 0.362621 1.550000
endloop
endfacet
facet normal 0.000000 -1.000000 0.000000
outer loop
vertex 0.423684 0.362621 3.657600
vertex 1.073684 0.362621 1.550000
vertex 1.073684 0.362621 3.050000
endloop
endfacet
facet normal 0.000000 -1.000000 -0.000000
outer loop
vertex 0.423684 0.362621 3.657600
vertex 1.073684 0.362621 3.050000
vertex 5.073684 0.362621 3.657600
endloop
endfacet
endsolid roomWindowFace
